<svg width="225" height="225" version="1.1" xmlns="http://www.w3.org/2000/svg" desc="Created with imagetracer.js version 1.2.6" ><path fill="rgb(41,27,28)" stroke="rgb(41,27,28)" stroke-width="1" opacity="0.9686274509803922" d="M 67.5 48 L 72 48.5 L 67.5 49 L 67.5 48 Z " /><path fill="rgb(41,27,28)" stroke="rgb(41,27,28)" stroke-width="1" opacity="0.9686274509803922" d="M 83.5 48 L 88 48.5 L 83.5 49 L 83.5 48 Z " /><path fill="rgb(41,27,28)" stroke="rgb(41,27,28)" stroke-width="1" opacity="0.9686274509803922" d="M 91.5 48 L 113.5 48 Q 114.8 50.2 119.5 49 L 131.5 53 L 141 58.5 L 103.5 59 Q 101.7 61.8 95.5 60 Q 76.8 64.3 66 76.5 Q 58.8 84.3 55 95.5 L 53 103.5 L 53 119.5 Q 56.4 139.1 68.5 150 Q 79 160.5 96.5 164 L 141 164.5 Q 125.2 178.2 93.5 176 L 78.5 171 L 64 161.5 Q 64.8 159.3 62.5 160 L 49 144.5 L 43 130.5 L 41 120.5 L 41 102.5 Q 44.7 83.8 54 72 Q 56.7 73.1 56 70.5 L 60 65 L 70.5 57 Q 78 51.5 89.5 50 L 91.5 48 Z " /><path fill="rgb(41,27,28)" stroke="rgb(41,27,28)" stroke-width="1" opacity="0.9686274509803922" d="M 54.5 175 L 61 175.5 L 54.5 176 L 54.5 175 Z " /><path fill="rgb(41,27,28)" stroke="rgb(41,27,28)" stroke-width="1" opacity="0.9686274509803922" d="M 67.5 175 L 73 175.5 L 67.5 176 L 67.5 175 Z " /><path fill="rgb(41,27,28)" stroke="rgb(41,27,28)" stroke-width="1" opacity="0.9686274509803922" d="M 85.5 175 L 88 175.5 L 85.5 176 L 85.5 175 Z " /><path fill="rgb(0,0,0)" stroke="rgb(0,0,0)" stroke-width="1" opacity="0" d="M 0 0 L 225 0 L 225 225 L 0 225 L 0 0 Z M 32 46 L 31 49 L 31 126 L 30 127 L 30 163 L 31 164 L 31 176 L 36 178 L 113 177 L 124 175 L 130 172 Q 132 173 131 171 L 133 171 L 142 167 L 143 165 L 142 165 L 142 164 L 97 163 Q 83 160 75 153 Q 59 142 54 121 L 54 104 L 56 97 L 61 86 L 68 78 Q 67 75 70 76 L 70 74 L 87 64 L 97 61 L 143 61 L 143 59 L 127 50 L 115 47 L 105 47 L 104 46 L 32 46 Z M 98 66 L 87 69 Q 78 72 72 79 Q 73 81 71 80 L 61 96 L 59 105 L 60 125 Q 63 136 71 144 Q 73 143 72 146 L 83 153 L 94 157 Q 99 156 101 158 L 148 158 L 150 157 L 156 149 L 156 147 L 155 145 L 100 145 Q 89 143 83 138 L 74 128 L 71 115 L 72 102 Q 75 92 82 87 Q 84 88 83 85 Q 90 81 100 79 L 156 79 L 157 78 Q 158 74 155 75 L 150 68 L 149 66 L 98 66 Z M 101 87 Q 92 88 88 93 Q 82 97 80 105 Q 78 119 83 127 L 93 134 L 104 137 L 157 137 L 158 136 L 166 136 L 170 133 L 175 128 L 175 125 L 171 126 L 169 125 L 164 126 L 162 125 L 100 125 L 97 123 L 94 120 L 95 118 L 168 118 L 169 117 L 169 106 L 167 105 L 95 105 L 94 104 L 99 99 L 103 98 L 173 98 L 174 96 L 166 87 L 101 87 Z M 183 103 L 181 104 L 177 109 Q 175 118 182 120 Q 188 121 192 119 L 195 112 L 194 108 Q 192 102 183 103 Z " /><path fill="rgb(210,205,207)" stroke="rgb(210,205,207)" stroke-width="1" opacity="0.5568627450980392" d="M 32 46 L 103.5 46 L 104.5 47 L 115 47.5 L 40.5 48 L 38.5 48 L 34.5 47 L 32 48 L 32 176 L 112.5 176 L 112.5 177 L 35.5 178 L 31 175.5 L 31 163.5 L 30 162.5 L 30 126.5 L 31 125.5 L 31 48.5 L 32 46 Z " /><path fill="rgb(210,205,207)" stroke="rgb(210,205,207)" stroke-width="1" opacity="0.5568627450980392" d="M 116.5 48 L 123 49.5 L 120.5 50 L 116.5 49 L 116.5 48 Z " /><path fill="rgb(210,205,207)" stroke="rgb(210,205,207)" stroke-width="1" opacity="0.5568627450980392" d="M 124.5 50 L 129 51.5 L 127.5 52 L 124.5 51 L 124.5 50 Z " /><path fill="rgb(210,205,207)" stroke="rgb(210,205,207)" stroke-width="1" opacity="0.5568627450980392" d="M 136.5 55 L 143 58.5 L 142.5 61 L 96.5 61 L 86.5 64 L 70 74 L 70 76 Q 67.3 74.9 68 77.5 Q 57.4 86.4 54.5 103 L 54 99.5 L 59 86.5 L 73.5 70 Q 82.7 62.7 96.5 60 L 142 59.5 L 136.5 56 L 136.5 55 Z " /><path fill="rgb(210,205,207)" stroke="rgb(210,205,207)" stroke-width="1" opacity="0.5568627450980392" d="M 97.5 66 L 148.5 66 L 150 67.5 L 155 75 Q 158 73.8 157 77.5 L 155.5 79 L 99.5 79 Q 89.6 80.8 83 85 Q 84.1 87.7 81.5 87 Q 74.9 92.4 72 101.5 L 71 114.5 L 74 127.5 L 82.5 138 Q 89.1 143.4 99.5 145 L 154.5 145 L 156 146.5 L 156 148.5 L 150 157 L 147.5 158 L 100.5 158 Q 99 155.5 93.5 157 L 82.5 153 L 72 145.5 Q 72.8 143.3 70.5 144 Q 63 136.5 60 124.5 L 59 104.5 L 61 95.5 L 70.5 80 Q 72.8 80.8 72 78.5 Q 77.8 72.3 86.5 69 L 97.5 66 Z M 98 68 L 84 72 L 72 80 L 63 95 L 61 103 L 61 105 Q 59 118 62 127 L 72 144 L 87 153 L 100 156 L 148 156 L 154 147 L 100 147 Q 86 144 78 137 L 73 130 L 69 116 L 70 103 L 74 93 L 78 87 L 92 79 L 99 77 L 155 77 L 153 74 L 148 68 L 98 68 Z " /><path fill="rgb(210,205,207)" stroke="rgb(210,205,207)" stroke-width="1" opacity="0.5568627450980392" d="M 100.5 87 L 165.5 87 L 174 95.5 L 172.5 98 L 102.5 98 L 98.5 99 L 94 103.5 L 94.5 105 L 166.5 105 L 169 106 L 169 116.5 L 167.5 118 L 94.5 118 L 94 119.5 L 96.5 123 L 99.5 125 L 161.5 125 L 163.5 126 L 168.5 125 L 170.5 126 L 175 125 L 175 127.5 L 169.5 133 L 165.5 136 L 157.5 136 L 156.5 137 L 103.5 137 L 92.5 134 L 83 126.5 Q 77.8 119.3 80 104.5 Q 82.1 97.1 87.5 93 Q 92.3 88.3 100.5 87 Z " /><path fill="rgb(210,205,207)" stroke="rgb(210,205,207)" stroke-width="1" opacity="0.5568627450980392" d="M 182.5 103 Q 191.8 101.7 194 107.5 L 195 111.5 L 191.5 119 L 187.5 120 L 187.5 119 Q 191.5 119.5 192 116.5 L 193 109.5 L 189.5 105 L 185.5 104 L 181.5 105 L 179 107.5 L 178 113.5 L 180 118 L 186 119.5 L 181.5 120 Q 175.3 118.3 177 108.5 L 180.5 104 L 182.5 103 Z " /><path fill="rgb(210,205,207)" stroke="rgb(210,205,207)" stroke-width="1" opacity="0.5568627450980392" d="M 53.5 104 L 54 119.5 L 53 119.5 L 53.5 104 Z " /><path fill="rgb(210,205,207)" stroke="rgb(210,205,207)" stroke-width="1" opacity="0.5568627450980392" d="M 54.5 121 L 55 123.5 L 54 123.5 L 54.5 121 Z " /><path fill="rgb(210,205,207)" stroke="rgb(210,205,207)" stroke-width="1" opacity="0.5568627450980392" d="M 55.5 125 L 56 127.5 L 55 127.5 L 55.5 125 Z " /><path fill="rgb(210,205,207)" stroke="rgb(210,205,207)" stroke-width="1" opacity="0.5568627450980392" d="M 56.5 129 Q 62.5 144 74.5 153 Q 81.2 159.3 92 161.5 L 89.5 162 Q 73.2 156.8 64 144.5 L 58 135.5 L 56.5 129 Z " /><path fill="rgb(210,205,207)" stroke="rgb(210,205,207)" stroke-width="1" opacity="0.5568627450980392" d="M 93.5 162 L 96 162.5 L 93.5 163 L 93.5 162 Z " /><path fill="rgb(210,205,207)" stroke="rgb(210,205,207)" stroke-width="1" opacity="0.5568627450980392" d="M 97.5 163 L 141.5 163 L 143 164.5 L 141.5 167 L 136.5 169 L 136.5 168 L 142 164.5 L 97.5 164 L 97.5 163 Z " /><path fill="rgb(210,205,207)" stroke="rgb(210,205,207)" stroke-width="1" opacity="0.5568627450980392" d="M 127.5 172 L 129 172.5 L 120.5 175 L 120.5 174 L 127.5 172 Z " /><path fill="rgb(210,205,207)" stroke="rgb(210,205,207)" stroke-width="1" opacity="0.5568627450980392" d="M 115.5 175 L 119 175.5 L 115.5 176 L 115.5 175 Z " /><path fill="rgb(190,79,86)" stroke="rgb(190,79,86)" stroke-width="1" opacity="0.9647058823529412" d="M 34.5 47 L 38.5 48 L 40.5 48 L 66.5 48 L 71.5 49 Q 72.8 46.8 77.5 48 L 79.5 49 L 82.5 48 L 87.5 49 L 90.5 48 L 89.5 50 Q 78 51.5 70.5 57 L 60 65 L 56 72 Q 53.3 70.9 54 73.5 L 48 81.5 L 42 96.5 Q 43.3 101.2 41 102.5 L 41 120.5 L 43 130.5 L 49 144.5 L 62.5 160 Q 64.8 159.3 64 161.5 L 78.5 171 L 93 175.5 L 88.5 176 L 85.5 175 Q 84.2 177.2 79.5 176 L 77.5 176 L 67.5 175 Q 66.3 177.2 61.5 176 Q 60 173.5 54.5 175 L 53.5 176 L 34.5 176 L 32 175.5 L 32.5 48 L 34 48.5 L 34.5 47 Z " /><path fill="rgb(190,79,86)" stroke="rgb(190,79,86)" stroke-width="1" opacity="0.9647058823529412" d="M 103.5 59 L 142 59.5 L 103.5 60 L 103.5 59 Z " /><path fill="rgb(190,79,86)" stroke="rgb(190,79,86)" stroke-width="1" opacity="0.9647058823529412" d="M 97.5 68 L 147.5 68 L 153 73.5 L 155 76.5 L 98.5 77 L 91.5 79 L 78 87 L 74 92.5 L 70 102.5 L 69 115.5 L 73 129.5 L 78 137 Q 86.1 144.2 99.5 147 L 154 147 L 147.5 156 L 99.5 156 L 86.5 153 L 72 143.5 L 62 126.5 Q 59.2 117.8 61 104.5 L 61 102.5 L 63 94.5 L 72 80 L 83.5 72 L 97.5 68 Z " /><path fill="rgb(190,79,86)" stroke="rgb(190,79,86)" stroke-width="1" opacity="0.9647058823529412" d="M 69.5 73 L 66.5 77 L 69.5 73 Z " /><path fill="rgb(190,79,86)" stroke="rgb(190,79,86)" stroke-width="1" opacity="0.9647058823529412" d="M 185.5 104 Q 190.3 104.3 192 107.5 L 193 114.5 L 189.5 119 L 187.5 118 L 186.5 120 L 180 117.5 L 180.5 116 L 179 115.5 L 179.5 114 Q 176.5 114.9 178 110.5 L 181.5 105 L 185.5 104 Z " /><path fill="rgb(190,79,86)" stroke="rgb(190,79,86)" stroke-width="1" opacity="0.9647058823529412" d="M 60.5 139 L 61.5 141 L 60.5 139 Z " /><path fill="rgb(190,79,86)" stroke="rgb(190,79,86)" stroke-width="1" opacity="0.9647058823529412" d="M 67.5 148 L 68.5 150 L 67.5 148 Z " /><path fill="rgb(190,79,86)" stroke="rgb(190,79,86)" stroke-width="1" opacity="0.9647058823529412" d="M 112.5 175 L 115 175.5 L 112.5 176 L 112.5 175 Z " /></svg>